# xmcd CD database file
#
# Track frame offsets:
#	150
#	19602
#	33887
#	43915
#	54205
#	83896
#	99787
#	115637
#	132518
#	147202
#
# Disc length: 2146 seconds
#
# Revision: 0
# Processed by: cddbd v1.5PL3 Copyright (c) Steve Scherf et al.
# Submitted via: CDex 1.51
#
DISCID=7508600a
DTITLE=Big Brother and The Holding company - Be A Brother
DYEAR=1970
DGENRE=Blues
TTITLE0=Keep On
TTITLE1=Joseph'S Coat
TTITLE2=Home On The Strange
TTITLE3=Someday
TTITLE4=Heartache People
TTITLE5=Sunshine Baby
TTITLE6=Mr. Natural
TTITLE7=Funkie Jim
TTITLE8=I'll Change Your Flat Tire, Merle
TTITLE9=Be A Brother
EXTD=YEAR: 1970
EXTT0=
EXTT1=
EXTT2=
EXTT3=
EXTT4=
EXTT5=
EXTT6=
EXTT7=
EXTT8=
EXTT9=
PLAYORDER=
